<?xml version="1.0" encoding="UTF-8" standalone="no"?>
<!DOCTYPE svg PUBLIC "-//W3C//DTD SVG 1.1//EN"
 "http://www.w3.org/Graphics/SVG/1.1/DTD/svg11.dtd">
<!-- Generated by graphviz version 2.43.0 (0)
 -->
<!-- Title: BMPWriter Pages: 1 -->
<svg width="106pt" height="157pt"
 viewBox="0.00 0.00 106.00 157.00" xmlns="http://www.w3.org/2000/svg" xmlns:xlink="http://www.w3.org/1999/xlink">
<g id="graph0" class="graph" transform="scale(1 1) rotate(0) translate(4 153)">
<title>BMPWriter</title>
<!-- Node1 -->
<g id="Node000001" class="node">
<title>Node1</title>
<g id="a_Node000001"><a xlink:title=" ">
<polygon fill="#999999" stroke="transparent" points="80,-49 18,-49 18,0 80,0 80,-49"/>
<text text-anchor="start" x="23" y="-36.5" font-family="Helvetica,sans-Serif" font-size="10.00">BMPWriter</text>
<text text-anchor="start" x="47" y="-21.5" font-family="Helvetica,sans-Serif" font-size="10.00"> </text>
<text text-anchor="start" x="24" y="-6.5" font-family="Helvetica,sans-Serif" font-size="10.00">+</text>
<text text-anchor="start" x="39" y="-6.5" font-family="Helvetica,sans-Serif" font-size="10.00">write()</text>
<polygon fill="#666666" stroke="#666666" points="18,-31.5 18,-31.5 80,-31.5 80,-31.5 18,-31.5"/>
<polygon fill="#666666" stroke="#666666" points="18,-16.5 18,-16.5 80,-16.5 80,-16.5 18,-16.5"/>
<polygon fill="none" stroke="#666666" points="18,0 18,-49 80,-49 80,0 18,0"/>
</a>
</g>
</g>
<!-- Node2 -->
<g id="Node000002" class="node">
<title>Node2</title>
<g id="a_Node000002"><a xlink:href="classImageWriter.html" target="_top" xlink:title=" ">
<polygon fill="white" stroke="transparent" points="98,-149 0,-149 0,-85 98,-85 98,-149"/>
<text text-anchor="start" x="18.5" y="-137" font-family="Helvetica,sans-Serif" font-size="10.00">ImageWriter</text>
<text text-anchor="start" x="47" y="-122" font-family="Helvetica,sans-Serif" font-size="10.00"> </text>
<text text-anchor="start" x="4" y="-107" font-family="Helvetica,sans-Serif" font-size="10.00">+</text>
<text text-anchor="start" x="17" y="-107" font-family="Helvetica,sans-Serif" font-size="10.00">~ImageWriter()</text>
<text text-anchor="start" x="4" y="-92" font-family="Helvetica,sans-Serif" font-size="10.00">+</text>
<text text-anchor="start" x="17" y="-92" font-family="Helvetica,sans-Serif" font-size="10.00">write()</text>
<polygon fill="#bfbfbf" stroke="#bfbfbf" points="0,-132 0,-132 98,-132 98,-132 0,-132"/>
<polygon fill="#bfbfbf" stroke="#bfbfbf" points="0,-117 0,-117 98,-117 98,-117 0,-117"/>
<polygon fill="none" stroke="#bfbfbf" points="0,-85 0,-149 98,-149 98,-85 0,-85"/>
</a>
</g>
</g>
<!-- Node2&#45;&gt;Node1 -->
<g id="edge1_Node000001_Node000002" class="edge">
<title>Node2&#45;&gt;Node1</title>
<g id="a_edge1_Node000001_Node000002"><a xlink:title=" ">
<path fill="none" stroke="#63b8ff" d="M49,-74.77C49,-66.03 49,-57.09 49,-49.27"/>
<polygon fill="none" stroke="#63b8ff" points="45.5,-74.85 49,-84.86 52.5,-74.86 45.5,-74.85"/>
</a>
</g>
</g>
</g>
</svg>
