<?xml version="1.0" encoding="UTF-8" standalone="no"?>
<!DOCTYPE svg PUBLIC "-//W3C//DTD SVG 1.1//EN"
 "http://www.w3.org/Graphics/SVG/1.1/DTD/svg11.dtd">
<!-- Generated by graphviz version 2.43.0 (0)
 -->
<!-- Title: SceneObject Pages: 1 -->
<svg width="276pt" height="337pt"
 viewBox="0.00 0.00 275.50 337.00" xmlns="http://www.w3.org/2000/svg" xmlns:xlink="http://www.w3.org/1999/xlink">
<g id="graph0" class="graph" transform="scale(1 1) rotate(0) translate(4 333)">
<title>SceneObject</title>
<!-- Node1 -->
<g id="Node000001" class="node">
<title>Node1</title>
<g id="a_Node000001"><a xlink:title=" ">
<polygon fill="#999999" stroke="transparent" points="195.5,-329 79.5,-329 79.5,-205 195.5,-205 195.5,-329"/>
<text text-anchor="start" x="107" y="-317" font-family="Helvetica,sans-Serif" font-size="10.00">SceneObject</text>
<text text-anchor="start" x="135.5" y="-302" font-family="Helvetica,sans-Serif" font-size="10.00"> </text>
<text text-anchor="start" x="83.5" y="-287" font-family="Helvetica,sans-Serif" font-size="10.00">+</text>
<text text-anchor="start" x="96.5" y="-287" font-family="Helvetica,sans-Serif" font-size="10.00">~SceneObject()</text>
<text text-anchor="start" x="83.5" y="-272" font-family="Helvetica,sans-Serif" font-size="10.00">+</text>
<text text-anchor="start" x="96.5" y="-272" font-family="Helvetica,sans-Serif" font-size="10.00">getProjectedLines()</text>
<text text-anchor="start" x="83.5" y="-257" font-family="Helvetica,sans-Serif" font-size="10.00">+</text>
<text text-anchor="start" x="96.5" y="-257" font-family="Helvetica,sans-Serif" font-size="10.00">render()</text>
<text text-anchor="start" x="83.5" y="-242" font-family="Helvetica,sans-Serif" font-size="10.00">+</text>
<text text-anchor="start" x="96.5" y="-242" font-family="Helvetica,sans-Serif" font-size="10.00">setColor()</text>
<text text-anchor="start" x="83.5" y="-227" font-family="Helvetica,sans-Serif" font-size="10.00">+</text>
<text text-anchor="start" x="96.5" y="-227" font-family="Helvetica,sans-Serif" font-size="10.00">getColor()</text>
<text text-anchor="start" x="83.5" y="-212" font-family="Helvetica,sans-Serif" font-size="10.00">#</text>
<text text-anchor="start" x="96.5" y="-212" font-family="Helvetica,sans-Serif" font-size="10.00">SceneObject()</text>
<polygon fill="#666666" stroke="#666666" points="79.5,-312 79.5,-312 195.5,-312 195.5,-312 79.5,-312"/>
<polygon fill="#666666" stroke="#666666" points="79.5,-297 79.5,-297 195.5,-297 195.5,-297 79.5,-297"/>
<polygon fill="none" stroke="#666666" points="79.5,-205 79.5,-329 195.5,-329 195.5,-205 79.5,-205"/>
</a>
</g>
</g>
<!-- Node2 -->
<g id="Node000002" class="node">
<title>Node2</title>
<g id="a_Node000002"><a xlink:href="classLSystem2D.html" target="_top" xlink:title=" ">
<polygon fill="white" stroke="transparent" points="133,-169 0,-169 0,0 133,0 133,-169"/>
<text text-anchor="start" x="39" y="-156.5" font-family="Helvetica,sans-Serif" font-size="10.00">LSystem2D</text>
<text text-anchor="start" x="65" y="-141.5" font-family="Helvetica,sans-Serif" font-size="10.00"> </text>
<text text-anchor="start" x="4.5" y="-126.5" font-family="Helvetica,sans-Serif" font-size="10.00">+</text>
<text text-anchor="start" x="17.5" y="-126.5" font-family="Helvetica,sans-Serif" font-size="10.00">getProjectedLines()</text>
<text text-anchor="start" x="4.5" y="-111.5" font-family="Helvetica,sans-Serif" font-size="10.00">+</text>
<text text-anchor="start" x="17.5" y="-111.5" font-family="Helvetica,sans-Serif" font-size="10.00">render()</text>
<text text-anchor="start" x="4.5" y="-96.5" font-family="Helvetica,sans-Serif" font-size="10.00">+</text>
<text text-anchor="start" x="17.5" y="-96.5" font-family="Helvetica,sans-Serif" font-size="10.00">addSymbol()</text>
<text text-anchor="start" x="4.5" y="-81.5" font-family="Helvetica,sans-Serif" font-size="10.00">+</text>
<text text-anchor="start" x="17.5" y="-81.5" font-family="Helvetica,sans-Serif" font-size="10.00">setDrawSymbol()</text>
<text text-anchor="start" x="4.5" y="-66.5" font-family="Helvetica,sans-Serif" font-size="10.00">+</text>
<text text-anchor="start" x="17.5" y="-66.5" font-family="Helvetica,sans-Serif" font-size="10.00">addReplacementRule()</text>
<text text-anchor="start" x="4.5" y="-51.5" font-family="Helvetica,sans-Serif" font-size="10.00">+</text>
<text text-anchor="start" x="17.5" y="-51.5" font-family="Helvetica,sans-Serif" font-size="10.00">setInitiator()</text>
<text text-anchor="start" x="4.5" y="-36.5" font-family="Helvetica,sans-Serif" font-size="10.00">+</text>
<text text-anchor="start" x="17.5" y="-36.5" font-family="Helvetica,sans-Serif" font-size="10.00">setAngle()</text>
<text text-anchor="start" x="4.5" y="-21.5" font-family="Helvetica,sans-Serif" font-size="10.00">+</text>
<text text-anchor="start" x="17.5" y="-21.5" font-family="Helvetica,sans-Serif" font-size="10.00">setStartingAngle()</text>
<text text-anchor="start" x="4.5" y="-6.5" font-family="Helvetica,sans-Serif" font-size="10.00">+</text>
<text text-anchor="start" x="17.5" y="-6.5" font-family="Helvetica,sans-Serif" font-size="10.00">setIterations()</text>
<polygon fill="#bfbfbf" stroke="#bfbfbf" points="0.5,-151.5 0.5,-151.5 133.5,-151.5 133.5,-151.5 0.5,-151.5"/>
<polygon fill="#bfbfbf" stroke="#bfbfbf" points="0.5,-136.5 0.5,-136.5 133.5,-136.5 133.5,-136.5 0.5,-136.5"/>
<polygon fill="none" stroke="#bfbfbf" points="0,0 0,-169 133,-169 133,0 0,0"/>
</a>
</g>
</g>
<!-- Node1&#45;&gt;Node2 -->
<g id="edge1_Node000001_Node000002" class="edge">
<title>Node1&#45;&gt;Node2</title>
<g id="a_edge1_Node000001_Node000002"><a xlink:title=" ">
<path fill="none" stroke="#63b8ff" d="M109.71,-195.35C106.35,-186.8 102.88,-178 99.45,-169.28"/>
<polygon fill="none" stroke="#63b8ff" points="106.54,-196.87 113.46,-204.89 113.06,-194.3 106.54,-196.87"/>
</a>
</g>
</g>
<!-- Node3 -->
<g id="Node000003" class="node">
<title>Node3</title>
<g id="a_Node000003"><a xlink:href="classLineDrawing.html" target="_top" xlink:title=" ">
<polygon fill="white" stroke="transparent" points="267.5,-124 151.5,-124 151.5,-45 267.5,-45 267.5,-124"/>
<text text-anchor="start" x="179" y="-111.5" font-family="Helvetica,sans-Serif" font-size="10.00">LineDrawing</text>
<text text-anchor="start" x="207.5" y="-96.5" font-family="Helvetica,sans-Serif" font-size="10.00"> </text>
<text text-anchor="start" x="155.5" y="-81.5" font-family="Helvetica,sans-Serif" font-size="10.00">+</text>
<text text-anchor="start" x="168.5" y="-81.5" font-family="Helvetica,sans-Serif" font-size="10.00">getProjectedLines()</text>
<text text-anchor="start" x="155.5" y="-66.5" font-family="Helvetica,sans-Serif" font-size="10.00">+</text>
<text text-anchor="start" x="168.5" y="-66.5" font-family="Helvetica,sans-Serif" font-size="10.00">render()</text>
<text text-anchor="start" x="155.5" y="-51.5" font-family="Helvetica,sans-Serif" font-size="10.00">+</text>
<text text-anchor="start" x="168.5" y="-51.5" font-family="Helvetica,sans-Serif" font-size="10.00">setLines()</text>
<polygon fill="#bfbfbf" stroke="#bfbfbf" points="151.5,-106.5 151.5,-106.5 267.5,-106.5 267.5,-106.5 151.5,-106.5"/>
<polygon fill="#bfbfbf" stroke="#bfbfbf" points="151.5,-91.5 151.5,-91.5 267.5,-91.5 267.5,-91.5 151.5,-91.5"/>
<polygon fill="none" stroke="#bfbfbf" points="151.5,-45 151.5,-124 267.5,-124 267.5,-45 151.5,-45"/>
</a>
</g>
</g>
<!-- Node1&#45;&gt;Node3 -->
<g id="edge2_Node000001_Node000003" class="edge">
<title>Node1&#45;&gt;Node3</title>
<g id="a_edge2_Node000001_Node000003"><a xlink:title=" ">
<path fill="none" stroke="#63b8ff" d="M165.67,-195.37C175.34,-171.14 185.79,-144.94 194.06,-124.2"/>
<polygon fill="none" stroke="#63b8ff" points="162.33,-194.31 161.88,-204.89 168.83,-196.9 162.33,-194.31"/>
</a>
</g>
</g>
</g>
</svg>
