<?xml version="1.0" encoding="UTF-8" standalone="no"?>
<!DOCTYPE svg PUBLIC "-//W3C//DTD SVG 1.1//EN"
 "http://www.w3.org/Graphics/SVG/1.1/DTD/svg11.dtd">
<!-- Generated by graphviz version 2.43.0 (0)
 -->
<!-- Title: JsonSceneParser Pages: 1 -->
<svg width="125pt" height="232pt"
 viewBox="0.00 0.00 125.00 232.00" xmlns="http://www.w3.org/2000/svg" xmlns:xlink="http://www.w3.org/1999/xlink">
<g id="graph0" class="graph" transform="scale(1 1) rotate(0) translate(4 228)">
<title>JsonSceneParser</title>
<!-- Node1 -->
<g id="Node000001" class="node">
<title>Node1</title>
<g id="a_Node000001"><a xlink:title=" ">
<polygon fill="#999999" stroke="transparent" points="117,-124 0,-124 0,0 117,0 117,-124"/>
<text text-anchor="start" x="19" y="-112" font-family="Helvetica,sans-Serif" font-size="10.00">JsonSceneParser</text>
<text text-anchor="start" x="57" y="-97" font-family="Helvetica,sans-Serif" font-size="10.00"> </text>
<text text-anchor="start" x="4.5" y="-82" font-family="Helvetica,sans-Serif" font-size="10.00">+</text>
<text text-anchor="start" x="17.5" y="-82" font-family="Helvetica,sans-Serif" font-size="10.00">parse()</text>
<text text-anchor="start" x="4.5" y="-67" font-family="Helvetica,sans-Serif" font-size="10.00">+</text>
<text text-anchor="start" x="17.5" y="-67" font-family="Helvetica,sans-Serif" font-size="10.00">getUnsigned()</text>
<text text-anchor="start" x="4.5" y="-52" font-family="Helvetica,sans-Serif" font-size="10.00">+</text>
<text text-anchor="start" x="17.5" y="-52" font-family="Helvetica,sans-Serif" font-size="10.00">getVec3()</text>
<text text-anchor="start" x="4.5" y="-37" font-family="Helvetica,sans-Serif" font-size="10.00">+</text>
<text text-anchor="start" x="17.5" y="-37" font-family="Helvetica,sans-Serif" font-size="10.00">getVec3()</text>
<text text-anchor="start" x="4.5" y="-22" font-family="Helvetica,sans-Serif" font-size="10.00">+</text>
<text text-anchor="start" x="17.5" y="-22" font-family="Helvetica,sans-Serif" font-size="10.00">getFloat()</text>
<text text-anchor="start" x="4.5" y="-7" font-family="Helvetica,sans-Serif" font-size="10.00">+</text>
<text text-anchor="start" x="17.5" y="-7" font-family="Helvetica,sans-Serif" font-size="10.00">getRequiredString()</text>
<polygon fill="#666666" stroke="#666666" points="0.5,-107 0.5,-107 117.5,-107 117.5,-107 0.5,-107"/>
<polygon fill="#666666" stroke="#666666" points="0.5,-92 0.5,-92 117.5,-92 117.5,-92 0.5,-92"/>
<polygon fill="none" stroke="#666666" points="0,0 0,-124 117,-124 117,0 0,0"/>
</a>
</g>
</g>
<!-- Node2 -->
<g id="Node000002" class="node">
<title>Node2</title>
<g id="a_Node000002"><a xlink:href="classSceneParser.html" target="_top" xlink:title=" ">
<polygon fill="white" stroke="transparent" points="107,-224 10,-224 10,-160 107,-160 107,-224"/>
<text text-anchor="start" x="29" y="-212" font-family="Helvetica,sans-Serif" font-size="10.00">SceneParser</text>
<text text-anchor="start" x="57" y="-197" font-family="Helvetica,sans-Serif" font-size="10.00"> </text>
<text text-anchor="start" x="14.5" y="-182" font-family="Helvetica,sans-Serif" font-size="10.00">+</text>
<text text-anchor="start" x="27.5" y="-182" font-family="Helvetica,sans-Serif" font-size="10.00">~SceneParser()</text>
<text text-anchor="start" x="14.5" y="-167" font-family="Helvetica,sans-Serif" font-size="10.00">+</text>
<text text-anchor="start" x="27.5" y="-167" font-family="Helvetica,sans-Serif" font-size="10.00">parse()</text>
<polygon fill="#bfbfbf" stroke="#bfbfbf" points="10.5,-207 10.5,-207 107.5,-207 107.5,-207 10.5,-207"/>
<polygon fill="#bfbfbf" stroke="#bfbfbf" points="10.5,-192 10.5,-192 107.5,-192 107.5,-192 10.5,-192"/>
<polygon fill="none" stroke="#bfbfbf" points="10,-160 10,-224 107,-224 107,-160 10,-160"/>
</a>
</g>
</g>
<!-- Node2&#45;&gt;Node1 -->
<g id="edge1_Node000001_Node000002" class="edge">
<title>Node2&#45;&gt;Node1</title>
<g id="a_edge1_Node000001_Node000002"><a xlink:title=" ">
<path fill="none" stroke="#63b8ff" d="M58.5,-149.66C58.5,-141.47 58.5,-132.71 58.5,-124.02"/>
<polygon fill="none" stroke="#63b8ff" points="55,-149.69 58.5,-159.69 62,-149.69 55,-149.69"/>
</a>
</g>
</g>
</g>
</svg>
