<?xml version="1.0" encoding="UTF-8" standalone="no"?>
<!DOCTYPE svg PUBLIC "-//W3C//DTD SVG 1.1//EN"
 "http://www.w3.org/Graphics/SVG/1.1/DTD/svg11.dtd">
<!-- Generated by graphviz version 2.43.0 (0)
 -->
<!-- Title: Graphical Class Hierarchy Pages: 1 -->
<svg width="198pt" height="64pt"
 viewBox="0.00 0.00 198.00 64.00" xmlns="http://www.w3.org/2000/svg" xmlns:xlink="http://www.w3.org/1999/xlink">
<g id="graph0" class="graph" transform="scale(1 1) rotate(0) translate(4 60)">
<title>Graphical Class Hierarchy</title>
<!-- Node0 -->
<g id="Node000000" class="node">
<title>Node0</title>
<g id="a_Node000000"><a xlink:href="classSceneObject.html" target="_top" xlink:title=" ">
<polygon fill="white" stroke="#666666" points="77,-37 0,-37 0,-18 77,-18 77,-37"/>
<text text-anchor="middle" x="38.5" y="-25" font-family="Helvetica,sans-Serif" font-size="10.00">SceneObject</text>
</a>
</g>
</g>
<!-- Node1 -->
<g id="Node000001" class="node">
<title>Node1</title>
<g id="a_Node000001"><a xlink:href="classLSystem2D.html" target="_top" xlink:title=" ">
<polygon fill="white" stroke="#666666" points="187.5,-56 115.5,-56 115.5,-37 187.5,-37 187.5,-56"/>
<text text-anchor="middle" x="151.5" y="-44" font-family="Helvetica,sans-Serif" font-size="10.00">LSystem2D</text>
</a>
</g>
</g>
<!-- Node0&#45;&gt;Node1 -->
<g id="edge2_Node000000_Node000001" class="edge">
<title>Node0&#45;&gt;Node1</title>
<g id="a_edge2_Node000000_Node000001"><a xlink:title=" ">
<path fill="none" stroke="#63b8ff" d="M87.13,-35.65C96.55,-37.27 106.28,-38.93 115.21,-40.46"/>
<polygon fill="#63b8ff" stroke="#63b8ff" points="87.53,-32.17 77.08,-33.93 86.35,-39.07 87.53,-32.17"/>
</a>
</g>
</g>
<!-- Node2 -->
<g id="Node000002" class="node">
<title>Node2</title>
<g id="a_Node000002"><a xlink:href="classLineDrawing.html" target="_top" xlink:title=" ">
<polygon fill="white" stroke="#666666" points="190,-19 113,-19 113,0 190,0 190,-19"/>
<text text-anchor="middle" x="151.5" y="-7" font-family="Helvetica,sans-Serif" font-size="10.00">LineDrawing</text>
</a>
</g>
</g>
<!-- Node0&#45;&gt;Node2 -->
<g id="edge3_Node000000_Node000002" class="edge">
<title>Node0&#45;&gt;Node2</title>
<g id="a_edge3_Node000000_Node000002"><a xlink:title=" ">
<path fill="none" stroke="#63b8ff" d="M87.07,-19.79C95.72,-18.38 104.64,-16.94 112.96,-15.59"/>
<polygon fill="#63b8ff" stroke="#63b8ff" points="86.39,-16.35 77.08,-21.41 87.51,-23.26 86.39,-16.35"/>
</a>
</g>
</g>
</g>
</svg>
