<?xml version="1.0" encoding="UTF-8" standalone="no"?>
<!DOCTYPE svg PUBLIC "-//W3C//DTD SVG 1.1//EN"
 "http://www.w3.org/Graphics/SVG/1.1/DTD/svg11.dtd">
<!-- Generated by graphviz version 2.43.0 (0)
 -->
<!-- Title: Graphical Class Hierarchy Pages: 1 -->
<svg width="258pt" height="64pt"
 viewBox="0.00 0.00 258.00 64.00" xmlns="http://www.w3.org/2000/svg" xmlns:xlink="http://www.w3.org/1999/xlink">
<g id="graph0" class="graph" transform="scale(1 1) rotate(0) translate(4 60)">
<title>Graphical Class Hierarchy</title>
<!-- Node0 -->
<g id="Node000000" class="node">
<title>Node0</title>
<g id="a_Node000000"><a xlink:href="classSceneObjectParser.html" target="_top" xlink:title=" ">
<polygon fill="white" stroke="#666666" points="107,-37 0,-37 0,-18 107,-18 107,-37"/>
<text text-anchor="middle" x="53.5" y="-25" font-family="Helvetica,sans-Serif" font-size="10.00">SceneObjectParser</text>
</a>
</g>
</g>
<!-- Node1 -->
<g id="Node000001" class="node">
<title>Node1</title>
<g id="a_Node000001"><a xlink:href="classLSystem2DParser.html" target="_top" xlink:title=" ">
<polygon fill="white" stroke="#666666" points="247.5,-56 145.5,-56 145.5,-37 247.5,-37 247.5,-56"/>
<text text-anchor="middle" x="196.5" y="-44" font-family="Helvetica,sans-Serif" font-size="10.00">LSystem2DParser</text>
</a>
</g>
</g>
<!-- Node0&#45;&gt;Node1 -->
<g id="edge4_Node000000_Node000001" class="edge">
<title>Node0&#45;&gt;Node1</title>
<g id="a_edge4_Node000000_Node000001"><a xlink:title=" ">
<path fill="none" stroke="#63b8ff" d="M117.13,-35.94C126.55,-37.21 136.17,-38.51 145.29,-39.73"/>
<polygon fill="#63b8ff" stroke="#63b8ff" points="117.38,-32.44 107,-34.57 116.45,-39.38 117.38,-32.44"/>
</a>
</g>
</g>
<!-- Node2 -->
<g id="Node000002" class="node">
<title>Node2</title>
<g id="a_Node000002"><a xlink:href="classLineDrawingParser.html" target="_top" xlink:title=" ">
<polygon fill="white" stroke="#666666" points="250,-19 143,-19 143,0 250,0 250,-19"/>
<text text-anchor="middle" x="196.5" y="-7" font-family="Helvetica,sans-Serif" font-size="10.00">LineDrawingParser</text>
</a>
</g>
</g>
<!-- Node0&#45;&gt;Node2 -->
<g id="edge5_Node000000_Node000002" class="edge">
<title>Node0&#45;&gt;Node2</title>
<g id="a_edge5_Node000000_Node000002"><a xlink:title=" ">
<path fill="none" stroke="#63b8ff" d="M117.05,-19.51C125.7,-18.41 134.51,-17.29 142.95,-16.21"/>
<polygon fill="#63b8ff" stroke="#63b8ff" points="116.48,-16.06 107,-20.8 117.37,-23 116.48,-16.06"/>
</a>
</g>
</g>
</g>
</svg>
