<?xml version="1.0" encoding="UTF-8" standalone="no"?>
<!DOCTYPE svg PUBLIC "-//W3C//DTD SVG 1.1//EN"
 "http://www.w3.org/Graphics/SVG/1.1/DTD/svg11.dtd">
<!-- Generated by graphviz version 2.43.0 (0)
 -->
<!-- Title: Line Pages: 1 -->
<svg width="95pt" height="402pt"
 viewBox="0.00 0.00 95.00 402.00" xmlns="http://www.w3.org/2000/svg" xmlns:xlink="http://www.w3.org/1999/xlink">
<g id="graph0" class="graph" transform="scale(1 1) rotate(0) translate(4 398)">
<title>Line</title>
<!-- Node1 -->
<g id="Node000001" class="node">
<title>Node1</title>
<g id="a_Node000001"><a xlink:title=" ">
<polygon fill="#999999" stroke="transparent" points="68,-49 19,-49 19,0 68,0 68,-49"/>
<text text-anchor="start" x="33.5" y="-36.5" font-family="Helvetica,sans-Serif" font-size="10.00">Line</text>
<text text-anchor="start" x="42" y="-21.5" font-family="Helvetica,sans-Serif" font-size="10.00"> </text>
<text text-anchor="start" x="23.5" y="-6.5" font-family="Helvetica,sans-Serif" font-size="10.00">+</text>
<text text-anchor="start" x="36.5" y="-6.5" font-family="Helvetica,sans-Serif" font-size="10.00">Line()</text>
<polygon fill="#666666" stroke="#666666" points="19.5,-31.5 19.5,-31.5 68.5,-31.5 68.5,-31.5 19.5,-31.5"/>
<polygon fill="#666666" stroke="#666666" points="19.5,-16.5 19.5,-16.5 68.5,-16.5 68.5,-16.5 19.5,-16.5"/>
<polygon fill="none" stroke="#666666" points="19,0 19,-49 68,-49 68,0 19,0"/>
</a>
</g>
</g>
<!-- Node2 -->
<g id="Node000002" class="node">
<title>Node2</title>
<g id="a_Node000002"><a xlink:href="structVec3.html" target="_top" xlink:title=" ">
<polygon fill="white" stroke="transparent" points="87,-276 0,-276 0,-107 87,-107 87,-276"/>
<text text-anchor="start" x="32" y="-263.5" font-family="Helvetica,sans-Serif" font-size="10.00">Vec3</text>
<text text-anchor="start" x="42" y="-248.5" font-family="Helvetica,sans-Serif" font-size="10.00"> </text>
<text text-anchor="start" x="4.5" y="-233.5" font-family="Helvetica,sans-Serif" font-size="10.00">+</text>
<text text-anchor="start" x="17.5" y="-233.5" font-family="Helvetica,sans-Serif" font-size="10.00">Vec3()</text>
<text text-anchor="start" x="4.5" y="-218.5" font-family="Helvetica,sans-Serif" font-size="10.00">+</text>
<text text-anchor="start" x="17.5" y="-218.5" font-family="Helvetica,sans-Serif" font-size="10.00">Vec3()</text>
<text text-anchor="start" x="4.5" y="-203.5" font-family="Helvetica,sans-Serif" font-size="10.00">+</text>
<text text-anchor="start" x="17.5" y="-203.5" font-family="Helvetica,sans-Serif" font-size="10.00">operator==()</text>
<text text-anchor="start" x="4.5" y="-188.5" font-family="Helvetica,sans-Serif" font-size="10.00">+</text>
<text text-anchor="start" x="17.5" y="-188.5" font-family="Helvetica,sans-Serif" font-size="10.00">operator+()</text>
<text text-anchor="start" x="4.5" y="-173.5" font-family="Helvetica,sans-Serif" font-size="10.00">+</text>
<text text-anchor="start" x="17.5" y="-173.5" font-family="Helvetica,sans-Serif" font-size="10.00">operator&#45;()</text>
<text text-anchor="start" x="4.5" y="-158.5" font-family="Helvetica,sans-Serif" font-size="10.00">+</text>
<text text-anchor="start" x="17.5" y="-158.5" font-family="Helvetica,sans-Serif" font-size="10.00">operator*()</text>
<text text-anchor="start" x="4.5" y="-143.5" font-family="Helvetica,sans-Serif" font-size="10.00">+</text>
<text text-anchor="start" x="17.5" y="-143.5" font-family="Helvetica,sans-Serif" font-size="10.00">operator*()</text>
<text text-anchor="start" x="4.5" y="-128.5" font-family="Helvetica,sans-Serif" font-size="10.00">+</text>
<text text-anchor="start" x="17.5" y="-128.5" font-family="Helvetica,sans-Serif" font-size="10.00">cross()</text>
<text text-anchor="start" x="4.5" y="-113.5" font-family="Helvetica,sans-Serif" font-size="10.00">+</text>
<text text-anchor="start" x="17.5" y="-113.5" font-family="Helvetica,sans-Serif" font-size="10.00">normalize()</text>
<polygon fill="#bfbfbf" stroke="#bfbfbf" points="0.5,-258.5 0.5,-258.5 87.5,-258.5 87.5,-258.5 0.5,-258.5"/>
<polygon fill="#bfbfbf" stroke="#bfbfbf" points="0.5,-243.5 0.5,-243.5 87.5,-243.5 87.5,-243.5 0.5,-243.5"/>
<polygon fill="none" stroke="#bfbfbf" points="0,-107 0,-276 87,-276 87,-107 0,-107"/>
</a>
</g>
</g>
<!-- Node2&#45;&gt;Node1 -->
<g id="edge1_Node000001_Node000002" class="edge">
<title>Node2&#45;&gt;Node1</title>
<g id="a_edge1_Node000001_Node000002"><a xlink:title=" ">
<path fill="none" stroke="#63b8ff" d="M43.5,-106.55C43.5,-90.62 43.5,-74.77 43.5,-61.36"/>
<polygon fill="none" stroke="#63b8ff" points="43.5,-61.33 39.5,-55.33 43.5,-49.33 47.5,-55.33 43.5,-61.33"/>
</a>
</g>
<text text-anchor="middle" x="61" y="-81" font-family="Helvetica,sans-Serif" font-size="10.00" fill="grey"> +from</text>
<text text-anchor="middle" x="61" y="-70" font-family="Helvetica,sans-Serif" font-size="10.00" fill="grey">+to</text>
</g>
<!-- Node3 -->
<g id="Node000003" class="node">
<title>Node3</title>
<g id="a_Node000003"><a xlink:title=" ">
<polygon fill="white" stroke="transparent" points="65.5,-394 21.5,-394 21.5,-345 65.5,-345 65.5,-394"/>
<text text-anchor="start" x="26.5" y="-381.5" font-family="Helvetica,sans-Serif" font-size="10.00">double</text>
<text text-anchor="start" x="41.5" y="-366.5" font-family="Helvetica,sans-Serif" font-size="10.00"> </text>
<text text-anchor="start" x="41.5" y="-351.5" font-family="Helvetica,sans-Serif" font-size="10.00"> </text>
<polygon fill="#bfbfbf" stroke="#bfbfbf" points="21.5,-376.5 21.5,-376.5 65.5,-376.5 65.5,-376.5 21.5,-376.5"/>
<polygon fill="#bfbfbf" stroke="#bfbfbf" points="21.5,-361.5 21.5,-361.5 65.5,-361.5 65.5,-361.5 21.5,-361.5"/>
<polygon fill="none" stroke="#bfbfbf" points="21.5,-345 21.5,-394 65.5,-394 65.5,-345 21.5,-345"/>
</a>
</g>
</g>
<!-- Node3&#45;&gt;Node2 -->
<g id="edge2_Node000002_Node000003" class="edge">
<title>Node3&#45;&gt;Node2</title>
<g id="a_edge2_Node000002_Node000003"><a xlink:title=" ">
<path fill="none" stroke="#63b8ff" d="M43.5,-344.76C43.5,-329.79 43.5,-309.36 43.5,-288.33"/>
<polygon fill="none" stroke="#63b8ff" points="43.5,-288.27 39.5,-282.27 43.5,-276.27 47.5,-282.27 43.5,-288.27"/>
</a>
</g>
<text text-anchor="middle" x="52.5" y="-319" font-family="Helvetica,sans-Serif" font-size="10.00" fill="grey"> +x</text>
<text text-anchor="middle" x="52.5" y="-308" font-family="Helvetica,sans-Serif" font-size="10.00" fill="grey">+y</text>
<text text-anchor="middle" x="52.5" y="-297" font-family="Helvetica,sans-Serif" font-size="10.00" fill="grey">+z</text>
</g>
</g>
</svg>
