<?xml version="1.0" encoding="UTF-8" standalone="no"?>
<!DOCTYPE svg PUBLIC "-//W3C//DTD SVG 1.1//EN"
 "http://www.w3.org/Graphics/SVG/1.1/DTD/svg11.dtd">
<!-- Generated by graphviz version 2.43.0 (0)
 -->
<!-- Title: Transform Pages: 1 -->
<svg width="103pt" height="413pt"
 viewBox="0.00 0.00 102.50 413.00" xmlns="http://www.w3.org/2000/svg" xmlns:xlink="http://www.w3.org/1999/xlink">
<g id="graph0" class="graph" transform="scale(1 1) rotate(0) translate(4 409)">
<title>Transform</title>
<!-- Node1 -->
<g id="Node000001" class="node">
<title>Node1</title>
<g id="a_Node000001"><a xlink:title=" ">
<polygon fill="#999999" stroke="transparent" points="73,-49 14,-49 14,0 73,0 73,-49"/>
<text text-anchor="start" x="19.5" y="-36.5" font-family="Helvetica,sans-Serif" font-size="10.00">Transform</text>
<text text-anchor="start" x="42" y="-21.5" font-family="Helvetica,sans-Serif" font-size="10.00"> </text>
<text text-anchor="start" x="42" y="-6.5" font-family="Helvetica,sans-Serif" font-size="10.00"> </text>
<polygon fill="#666666" stroke="#666666" points="14.5,-31.5 14.5,-31.5 73.5,-31.5 73.5,-31.5 14.5,-31.5"/>
<polygon fill="#666666" stroke="#666666" points="14.5,-16.5 14.5,-16.5 73.5,-16.5 73.5,-16.5 14.5,-16.5"/>
<polygon fill="none" stroke="#666666" points="14,0 14,-49 73,-49 73,0 14,0"/>
</a>
</g>
</g>
<!-- Node2 -->
<g id="Node000002" class="node">
<title>Node2</title>
<g id="a_Node000002"><a xlink:href="structVec3.html" target="_top" xlink:title=" ">
<polygon fill="white" stroke="transparent" points="87,-287 0,-287 0,-118 87,-118 87,-287"/>
<text text-anchor="start" x="32" y="-274.5" font-family="Helvetica,sans-Serif" font-size="10.00">Vec3</text>
<text text-anchor="start" x="42" y="-259.5" font-family="Helvetica,sans-Serif" font-size="10.00"> </text>
<text text-anchor="start" x="4.5" y="-244.5" font-family="Helvetica,sans-Serif" font-size="10.00">+</text>
<text text-anchor="start" x="17.5" y="-244.5" font-family="Helvetica,sans-Serif" font-size="10.00">Vec3()</text>
<text text-anchor="start" x="4.5" y="-229.5" font-family="Helvetica,sans-Serif" font-size="10.00">+</text>
<text text-anchor="start" x="17.5" y="-229.5" font-family="Helvetica,sans-Serif" font-size="10.00">Vec3()</text>
<text text-anchor="start" x="4.5" y="-214.5" font-family="Helvetica,sans-Serif" font-size="10.00">+</text>
<text text-anchor="start" x="17.5" y="-214.5" font-family="Helvetica,sans-Serif" font-size="10.00">operator==()</text>
<text text-anchor="start" x="4.5" y="-199.5" font-family="Helvetica,sans-Serif" font-size="10.00">+</text>
<text text-anchor="start" x="17.5" y="-199.5" font-family="Helvetica,sans-Serif" font-size="10.00">operator+()</text>
<text text-anchor="start" x="4.5" y="-184.5" font-family="Helvetica,sans-Serif" font-size="10.00">+</text>
<text text-anchor="start" x="17.5" y="-184.5" font-family="Helvetica,sans-Serif" font-size="10.00">operator&#45;()</text>
<text text-anchor="start" x="4.5" y="-169.5" font-family="Helvetica,sans-Serif" font-size="10.00">+</text>
<text text-anchor="start" x="17.5" y="-169.5" font-family="Helvetica,sans-Serif" font-size="10.00">operator*()</text>
<text text-anchor="start" x="4.5" y="-154.5" font-family="Helvetica,sans-Serif" font-size="10.00">+</text>
<text text-anchor="start" x="17.5" y="-154.5" font-family="Helvetica,sans-Serif" font-size="10.00">operator*()</text>
<text text-anchor="start" x="4.5" y="-139.5" font-family="Helvetica,sans-Serif" font-size="10.00">+</text>
<text text-anchor="start" x="17.5" y="-139.5" font-family="Helvetica,sans-Serif" font-size="10.00">cross()</text>
<text text-anchor="start" x="4.5" y="-124.5" font-family="Helvetica,sans-Serif" font-size="10.00">+</text>
<text text-anchor="start" x="17.5" y="-124.5" font-family="Helvetica,sans-Serif" font-size="10.00">normalize()</text>
<polygon fill="#bfbfbf" stroke="#bfbfbf" points="0.5,-269.5 0.5,-269.5 87.5,-269.5 87.5,-269.5 0.5,-269.5"/>
<polygon fill="#bfbfbf" stroke="#bfbfbf" points="0.5,-254.5 0.5,-254.5 87.5,-254.5 87.5,-254.5 0.5,-254.5"/>
<polygon fill="none" stroke="#bfbfbf" points="0,-118 0,-287 87,-287 87,-118 0,-118"/>
</a>
</g>
</g>
<!-- Node2&#45;&gt;Node1 -->
<g id="edge1_Node000001_Node000002" class="edge">
<title>Node2&#45;&gt;Node1</title>
<g id="a_edge1_Node000001_Node000002"><a xlink:title=" ">
<path fill="none" stroke="#63b8ff" d="M43.5,-117.88C43.5,-98.01 43.5,-77.83 43.5,-61.43"/>
<polygon fill="none" stroke="#63b8ff" points="43.5,-61.16 39.5,-55.16 43.5,-49.16 47.5,-55.16 43.5,-61.16"/>
</a>
</g>
<text text-anchor="middle" x="69" y="-92" font-family="Helvetica,sans-Serif" font-size="10.00" fill="grey"> +position</text>
<text text-anchor="middle" x="69" y="-81" font-family="Helvetica,sans-Serif" font-size="10.00" fill="grey">+rotation</text>
<text text-anchor="middle" x="69" y="-70" font-family="Helvetica,sans-Serif" font-size="10.00" fill="grey">+scale</text>
</g>
<!-- Node3 -->
<g id="Node000003" class="node">
<title>Node3</title>
<g id="a_Node000003"><a xlink:title=" ">
<polygon fill="white" stroke="transparent" points="65.5,-405 21.5,-405 21.5,-356 65.5,-356 65.5,-405"/>
<text text-anchor="start" x="26.5" y="-392.5" font-family="Helvetica,sans-Serif" font-size="10.00">double</text>
<text text-anchor="start" x="41.5" y="-377.5" font-family="Helvetica,sans-Serif" font-size="10.00"> </text>
<text text-anchor="start" x="41.5" y="-362.5" font-family="Helvetica,sans-Serif" font-size="10.00"> </text>
<polygon fill="#bfbfbf" stroke="#bfbfbf" points="21.5,-387.5 21.5,-387.5 65.5,-387.5 65.5,-387.5 21.5,-387.5"/>
<polygon fill="#bfbfbf" stroke="#bfbfbf" points="21.5,-372.5 21.5,-372.5 65.5,-372.5 65.5,-372.5 21.5,-372.5"/>
<polygon fill="none" stroke="#bfbfbf" points="21.5,-356 21.5,-405 65.5,-405 65.5,-356 21.5,-356"/>
</a>
</g>
</g>
<!-- Node3&#45;&gt;Node2 -->
<g id="edge2_Node000002_Node000003" class="edge">
<title>Node3&#45;&gt;Node2</title>
<g id="a_edge2_Node000002_Node000003"><a xlink:title=" ">
<path fill="none" stroke="#63b8ff" d="M43.5,-355.76C43.5,-340.79 43.5,-320.36 43.5,-299.33"/>
<polygon fill="none" stroke="#63b8ff" points="43.5,-299.27 39.5,-293.27 43.5,-287.27 47.5,-293.27 43.5,-299.27"/>
</a>
</g>
<text text-anchor="middle" x="52.5" y="-330" font-family="Helvetica,sans-Serif" font-size="10.00" fill="grey"> +x</text>
<text text-anchor="middle" x="52.5" y="-319" font-family="Helvetica,sans-Serif" font-size="10.00" fill="grey">+y</text>
<text text-anchor="middle" x="52.5" y="-308" font-family="Helvetica,sans-Serif" font-size="10.00" fill="grey">+z</text>
</g>
</g>
</svg>
